:FULLY-SPECIFIED
:FORCE-ALL-JOINTS-BE-3DOF
:DEGREES
883
root 3.85195 16.5305 30.5312 -10.8246 23.6768 359.35
lfemur -15.8095 19.9983 -19.0116
ltibia 40.4913 0 0
lfoot -12.9326 0.0690648 0
ltoes -1.37978 0 0
rfemur -80.7132 -24.4467 36.5168
rtibia 101.126 0 0
rfoot 19.264 26.205 0
rtoes -8.14353 0 0
lowerback 15.0059 -4.01209 -6.64789
upperback 4.97444 -6.28636 -2.38034
thorax -2.64296 -3.11384 2.26165
lowerneck -7.71871 -3.24517 1.71638
upperneck 4.65939 -4.84264 4.94114
head 2.93726 -2.18998 1.06474
lclavicle -3.12092e-14 -4.77083e-15 0
lhumerus -33.0312 -40.5423 88.3441
lradius 60.5977 0 0
lwrist 19.6497 0 0
lhand 25.8347 11.8689 0
lfingers 7.12502 0 0
lthumb 49.9264 33.1302 0
rclavicle -3.12092e-14 -4.77083e-15 0
rhumerus -49.2556 -29.6742 -46.9493
rradius 72.2992 0 0
rwrist -23.3678 0 0
rhand -47.7649 -54.4874 0
rfingers 7.12502 0 0
rthumb -20.4424 -803.431 0
884
root 3.83986 16.5227 30.5917 -10.3451 23.5416 -0.569888
lfemur -16.2722 20.2114 -18.8552
ltibia 40.932 -0 0
lfoot -13.0382 -0.0112873 0.00148178
ltoes -0.806262 0 0
rfemur -77.9042 -24.6956 34.4517
rtibia 99.8762 -0 0
rfoot 18.5908 23.8798 0.291006
rtoes -5.91208 0 0
lowerback 14.4652 -3.9262 -6.48123
upperback 4.75579 -6.11532 -2.37254
thorax -2.59308 -3.02971 2.13359
lowerneck -7.68712 -3.40689 1.54711
upperneck 4.64658 -5.04026 4.94539
head 2.93953 -2.29192 1.08631
lclavicle -2.24875e-15 2.22639e-14 0
lhumerus -33.9581 -40.5136 89.416
lradius 60.5994 -0 0
lwrist 19.3418 0 0
lhand 26.0254 12.1077 0.00795608
lfingers 7.12502 -0 0
lthumb 50.0996 33.2675 0.00415199
rclavicle -2.24875e-15 2.22639e-14 0
rhumerus -48.077 -27.7303 -49.6988
rradius 74.3059 -0 0
rwrist -22.7115 0 0
rhand -45.058 -52.334 1.1834
rfingers 7.12502 -0 0
rthumb -17.8595 -81.1308 1.20701
885
root 3.82776 16.515 30.6522 -9.86622 23.4058 -0.491093
lfemur -16.7349 20.4257 -18.7004
ltibia 41.3728 -0 0
lfoot -13.1439 -0.0916419 0.00281541
ltoes -0.232744 0 0
rfemur -75.0826 -24.8519 32.3723
rtibia 98.6263 -0 0
rfoot 17.9063 21.5513 0.554439
rtoes -3.68063 0 0
lowerback 13.9249 -3.83875 -6.31541
upperback 4.53724 -5.94424 -2.36539
thorax -2.54338 -2.94547 2.00562
lowerneck -7.65504 -3.56852 1.37772
upperneck 4.63375 -5.23788 4.94969
head 2.94177 -2.39387 1.10788
lclavicle -2.24875e-15 2.22639e-14 0
lhumerus -34.8836 -40.4718 90.4866
lradius 60.601 -0 0
lwrist 19.0339 0 0
lhand 26.2161 12.3465 0.0151172
lfingers 7.12502 -0 0
lthumb 50.2728 33.4048 0.00788895
rclavicle -2.24875e-15 2.22639e-14 0
rhumerus -47.0234 -25.7398 -52.3563
rradius 76.3125 -0 0
rwrist -22.0551 0 0
rhand -42.3069 -50.1258 2.26293
rfingers 7.12502 -0 0
rthumb -15.2286 -78.7772 2.30815
886
root 3.81567 16.5072 30.7127 -9.38807 23.2694 -0.413618
lfemur -17.1976 20.6411 -18.5472
ltibia 41.8135 -0 0
lfoot -13.2495 -0.171999 0.00400088
ltoes 0.340774 -0 0
rfemur -72.2541 -24.915 30.2851
rtibia 97.3765 -0 0
rfoot 17.2116 19.2196 0.789825
rtoes -1.44918 0 0
lowerback 13.3848 -3.74974 -6.15044
upperback 4.31877 -5.77315 -2.3589
thorax -2.49388 -2.86112 1.87772
lowerneck -7.62248 -3.73006 1.2082
upperneck 4.62091 -5.4355 4.95404
head 2.94397 -2.49581 1.12945
lclavicle -2.24875e-15 2.22639e-14 0
lhumerus -35.8073 -40.4168 91.5554
lradius 60.6027 -0 0
lwrist 18.7259 0 0
lhand 26.4069 12.5854 0.0214831
lfingers 7.12502 -0 0
lthumb 50.4461 33.542 0.0112108
rclavicle -2.24875e-15 2.22639e-14 0
rhumerus -46.0885 -23.7084 -54.9308
rradius 78.3192 -0 0
rwrist -21.3988 0 0
rhand -39.5138 -47.8664 3.23444
rfingers 7.12502 -0 0
rthumb -12.5523 -76.3733 3.29919
887
root 3.80358 16.4994 30.7732 -8.91061 23.1324 -0.337462
lfemur -17.6604 20.8577 -18.3957
ltibia 42.2543 -0 0
lfoot -13.3552 -0.252358 0.00503817
ltoes 0.914292 -0 0
rfemur -69.4246 -24.8845 28.1967
rtibia 96.1267 -0 0
rfoot 16.5079 16.8852 0.996738
rtoes 0.782266 -0 0
lowerback 12.8451 -3.65918 -5.98634
upperback 4.10039 -5.60202 -2.35307
thorax -2.44457 -2.77666 1.74991
lowerneck -7.58944 -3.89149 1.03857
upperneck 4.60804 -5.63312 4.95843
head 2.94612 -2.59776 1.15102
lclavicle -2.24875e-15 2.22639e-14 0
lhumerus -36.7286 -40.3488 92.6219
lradius 60.6043 -0 0
lwrist 18.418 0 0
lhand 26.5977 12.8242 0.0270537
lfingers 7.12502 -0 0
lthumb 50.6193 33.6793 0.0141176
rclavicle -2.24875e-15 2.22639e-14 0
rhumerus -45.2666 -21.6414 -57.4311
rradius 80.3258 -0 0
rwrist -20.7424 0 0
rhand -36.6817 -45.56 4.09403
rfingers 7.12502 -0 0
rthumb -9.8338 -73.9231 4.17612
888
root 3.79148 16.4916 30.8337 -8.43384 22.9949 -0.262626
lfemur -18.1233 21.0754 -18.2458
ltibia 42.695 -0 0
lfoot -13.4608 -0.332719 0.00592729
ltoes 1.48781 -0 0
rfemur -66.6 -24.7606 26.1138
rtibia 94.8769 -0 0
rfoot 15.7962 14.5482 1.1748
rtoes 3.01371 -0 0
lowerback 12.3056 -3.56708 -5.82311
upperback 3.88209 -5.43088 -2.3479
thorax -2.39546 -2.69209 1.62219
lowerneck -7.55591 -4.05283 0.868806
upperneck 4.59516 -5.83073 4.96286
head 2.94824 -2.69971 1.17258
lclavicle -2.24875e-15 2.22639e-14 0
lhumerus -37.6471 -40.2677 93.6857
lradius 60.606 -0 0
lwrist 18.1101 0 0
lhand 26.7885 13.0631 0.0318288
lfingers 7.12502 -0 0
lthumb 50.7926 33.8167 0.0166092
rclavicle -2.24875e-15 2.22639e-14 0
rhumerus -44.5523 -19.5438 -59.8657
rradius 82.3325 -0 0
rwrist -20.0861 0 0
rhand -33.8141 -43.2112 4.8381
rfingers 7.12502 -0 0
rthumb -7.07713 -71.4312 4.93525
889
root 3.77939 16.4839 30.8942 -7.95774 22.8568 -0.189111
lfemur -18.5862 21.2942 -18.0977
ltibia 43.1357 -0 0
lfoot -13.5665 -0.413081 0.00666823
ltoes 2.06133 -0 0
rfemur -63.786 -24.5439 24.043
rtibia 93.627 -0 0
rfoot 15.0779 12.209 1.32369
rtoes 5.24516 -0 0
lowerback 11.7665 -3.47346 -5.66078
upperback 3.66386 -5.25972 -2.34339
thorax -2.34653 -2.60741 1.49454
lowerneck -7.52189 -4.21407 0.698915
upperneck 4.58225 -6.02835 4.96735
head 2.95033 -2.80165 1.19414
lclavicle -2.24875e-15 2.22639e-14 0
lhumerus -38.5622 -40.1737 94.7463
lradius 60.6076 -0 0
lwrist 17.8022 0 0
lhand 26.9794 13.302 0.0358083
lfingers 7.12502 -0 0
lthumb 50.9658 33.954 0.0186856
rclavicle -2.24875e-15 2.22639e-14 0
rhumerus -43.9407 -17.4198 -62.243
rradius 84.3391 -0 0
rwrist -19.4297 0 0
rhand -30.9152 -40.8255 5.46343
rfingers 7.12502 -0 0
rthumb -4.28684 -68.9027 5.57329
890
root 3.7673 16.4761 30.9547 -7.48233 22.7181 -0.116917
lfemur -19.0492 21.5142 -17.9512
ltibia 43.5765 -0 0
lfoot -13.6721 -0.493445 0.00726099
ltoes 2.63485 -0 0
rfemur -60.9882 -24.2353 21.9906
rtibia 92.3772 -0 0
rfoot 14.3541 9.86807 1.44314
rtoes 7.47661 -0 0
lowerback 11.2277 -3.37831 -5.49935
upperback 3.44571 -5.08854 -2.33952
thorax -2.2978 -2.52262 1.36697
lowerneck -7.48738 -4.37521 0.528892
upperneck 4.56933 -6.22596 4.97188
head 2.95237 -2.9036 1.2157
lclavicle -2.24875e-15 2.22639e-14 0
lhumerus -39.4736 -40.0667 95.8032
lradius 60.6093 -0 0
lwrist 17.4942 0 0
lhand 27.1702 13.5409 0.038992
lfingers 7.12502 -0 0
lthumb 51.1391 34.0913 0.0203467
rclavicle -2.24875e-15 2.22639e-14 0
rhumerus -43.4275 -15.2739 -64.5709
rradius 86.3458 -0 0
rwrist -18.7734 0 0
rhand -27.9897 -38.4086 5.96722
rfingers 7.12502 -0 0
rthumb -1.46811 -66.3433 6.08734
891
root 3.7552 16.4683 31.0152 -7.00758 22.5788 -0.0460456
lfemur -19.5123 21.7352 -17.8063
ltibia 44.0172 -0 0
lfoot -13.7778 -0.573809 0.00770556
ltoes 3.20836 -0 0
rfemur -58.212 -23.8362 19.9628
rtibia 91.1274 -0 0
rfoot 13.6259 7.52568 1.53291
rtoes 9.70806 -0 0
lowerback 10.6893 -3.28166 -5.33884
upperback 3.22763 -4.91735 -2.33632
thorax -2.24926 -2.43773 1.23949
lowerneck -7.45239 -4.53625 0.358734
upperneck 4.55638 -6.42357 4.97645
head 2.95438 -3.00555 1.23726
lclavicle -2.24875e-15 2.22639e-14 0
lhumerus -40.3808 -39.9469 96.856
lradius 60.611 -0 0
lwrist 17.1863 0 0
lhand 27.3611 13.7799 0.0413799
lfingers 7.12502 -0 0
lthumb 51.3123 34.2286 0.0215926
rclavicle -2.24875e-15 2.22639e-14 0
rhumerus -43.0091 -13.1099 -66.8569
rradius 88.3525 -0 0
rwrist -18.117 0 0
rhand -25.0431 -35.9671 6.34715
rfingers 7.12502 -0 0
rthumb 1.37334 -63.7594 6.47504
